<svg width="112" height="47" viewBox="0 0 112 47" fill="none" xmlns="http://www.w3.org/2000/svg">
<path d="M36.9794 8V2.07H34.7094V0.8H40.6094V2.07H38.3394V8H36.9794ZM40.9148 8V2.6H42.1148V3.92L41.9848 3.75C42.0548 3.56333 42.1482 3.39333 42.2648 3.24C42.3815 3.08667 42.5248 2.96 42.6948 2.86C42.8248 2.78 42.9665 2.71833 43.1198 2.675C43.2732 2.62833 43.4315 2.6 43.5948 2.59C43.7582 2.57667 43.9215 2.58 44.0848 2.6V3.87C43.9348 3.82333 43.7598 3.80833 43.5598 3.825C43.3632 3.83833 43.1848 3.88333 43.0248 3.96C42.8648 4.03333 42.7298 4.13167 42.6198 4.255C42.5098 4.375 42.4265 4.51833 42.3698 4.685C42.3132 4.84833 42.2848 5.03333 42.2848 5.24V8H40.9148ZM46.4285 8.15C46.0418 8.15 45.7135 8.07667 45.4435 7.93C45.1768 7.78 44.9735 7.58167 44.8335 7.335C44.6968 7.085 44.6285 6.81 44.6285 6.51C44.6285 6.26 44.6668 6.03167 44.7435 5.825C44.8202 5.61833 44.9435 5.43667 45.1135 5.28C45.2868 5.12 45.5185 4.98667 45.8085 4.88C46.0085 4.80667 46.2468 4.74167 46.5235 4.685C46.8002 4.62833 47.1135 4.575 47.4635 4.525C47.8135 4.47167 48.1985 4.41333 48.6185 4.35L48.1285 4.62C48.1285 4.3 48.0518 4.065 47.8985 3.915C47.7452 3.765 47.4885 3.69 47.1285 3.69C46.9285 3.69 46.7202 3.73833 46.5035 3.835C46.2868 3.93167 46.1352 4.10333 46.0485 4.35L44.8185 3.96C44.9552 3.51333 45.2118 3.15 45.5885 2.87C45.9652 2.59 46.4785 2.45 47.1285 2.45C47.6052 2.45 48.0285 2.52333 48.3985 2.67C48.7685 2.81667 49.0485 3.07 49.2385 3.43C49.3452 3.63 49.4085 3.83 49.4285 4.03C49.4485 4.23 49.4585 4.45333 49.4585 4.7V8H48.2685V6.89L48.4385 7.12C48.1752 7.48333 47.8902 7.74667 47.5835 7.91C47.2802 8.07 46.8952 8.15 46.4285 8.15ZM46.7185 7.08C46.9685 7.08 47.1785 7.03667 47.3485 6.95C47.5218 6.86 47.6585 6.75833 47.7585 6.645C47.8618 6.53167 47.9318 6.43667 47.9685 6.36C48.0385 6.21333 48.0785 6.04333 48.0885 5.85C48.1018 5.65333 48.1085 5.49 48.1085 5.36L48.5085 5.46C48.1052 5.52667 47.7785 5.58333 47.5285 5.63C47.2785 5.67333 47.0768 5.71333 46.9235 5.75C46.7702 5.78667 46.6352 5.82667 46.5185 5.87C46.3852 5.92333 46.2768 5.98167 46.1935 6.045C46.1135 6.105 46.0535 6.17167 46.0135 6.245C45.9768 6.31833 45.9585 6.4 45.9585 6.49C45.9585 6.61333 45.9885 6.72 46.0485 6.81C46.1118 6.89667 46.2002 6.96333 46.3135 7.01C46.4268 7.05667 46.5618 7.08 46.7185 7.08ZM53.1386 8.15C52.5786 8.15 52.0986 8.025 51.6986 7.775C51.2986 7.525 50.9919 7.185 50.7786 6.755C50.5653 6.325 50.4586 5.84 50.4586 5.3C50.4586 4.75333 50.5686 4.265 50.7886 3.835C51.0119 3.405 51.3253 3.06667 51.7286 2.82C52.1319 2.57333 52.6086 2.45 53.1586 2.45C53.7953 2.45 54.3286 2.61167 54.7586 2.935C55.1919 3.255 55.4686 3.69333 55.5886 4.25L54.2286 4.61C54.1486 4.33 54.0086 4.11167 53.8086 3.955C53.6119 3.79833 53.3886 3.72 53.1386 3.72C52.8519 3.72 52.6169 3.79 52.4336 3.93C52.2503 4.06667 52.1153 4.255 52.0286 4.495C51.9419 4.73167 51.8986 5 51.8986 5.3C51.8986 5.77 52.0019 6.15167 52.2086 6.445C52.4186 6.735 52.7286 6.88 53.1386 6.88C53.4453 6.88 53.6786 6.81 53.8386 6.67C53.9986 6.53 54.1186 6.33 54.1986 6.07L55.5886 6.36C55.4353 6.93333 55.1453 7.375 54.7186 7.685C54.2919 7.995 53.7653 8.15 53.1386 8.15ZM56.5787 8L56.5887 0.8H57.9687V5.2L59.7987 2.6H61.4787L59.5287 5.3L61.6087 8H59.8387L57.9687 5.4V8H56.5787ZM62.2063 1.85V0.65H63.5663V1.85H62.2063ZM62.2063 8V2.6H63.5663V8H62.2063ZM68.7452 8V5.45C68.7452 5.32667 68.7386 5.17 68.7252 4.98C68.7119 4.78667 68.6702 4.59333 68.6002 4.4C68.5302 4.20667 68.4152 4.045 68.2552 3.915C68.0986 3.785 67.8752 3.72 67.5852 3.72C67.4686 3.72 67.3436 3.73833 67.2102 3.775C67.0769 3.81167 66.9519 3.88333 66.8352 3.99C66.7186 4.09333 66.6219 4.24667 66.5452 4.45C66.4719 4.65333 66.4352 4.92333 66.4352 5.26L65.6552 4.89C65.6552 4.46333 65.7419 4.06333 65.9152 3.69C66.0886 3.31667 66.3486 3.015 66.6952 2.785C67.0452 2.555 67.4852 2.44 68.0152 2.44C68.4386 2.44 68.7836 2.51167 69.0502 2.655C69.3169 2.79833 69.5236 2.98 69.6702 3.2C69.8202 3.42 69.9269 3.65 69.9902 3.89C70.0536 4.12667 70.0919 4.34333 70.1052 4.54C70.1186 4.73667 70.1252 4.88 70.1252 4.97V8H68.7452ZM65.0552 8V2.6H66.2652V4.39H66.4352V8H65.0552ZM73.7327 10.55C73.426 10.55 73.1343 10.5 72.8577 10.4C72.581 10.3033 72.3327 10.1667 72.1127 9.99C71.896 9.81667 71.7193 9.61333 71.5827 9.38L72.8427 8.77C72.9293 8.93 73.0527 9.05167 73.2127 9.135C73.376 9.21833 73.5527 9.26 73.7427 9.26C73.946 9.26 74.1377 9.225 74.3177 9.155C74.4977 9.08833 74.641 8.98667 74.7477 8.85C74.8577 8.71667 74.9093 8.55 74.9027 8.35V6.78H75.0727V2.6H76.2627V8.37C76.2627 8.50333 76.256 8.62833 76.2427 8.745C76.2327 8.865 76.2127 8.98333 76.1827 9.1C76.096 9.43 75.9343 9.70167 75.6977 9.915C75.4643 10.1283 75.1777 10.2867 74.8377 10.39C74.4977 10.4967 74.1293 10.55 73.7327 10.55ZM73.6127 8.15C73.116 8.15 72.681 8.025 72.3077 7.775C71.9343 7.525 71.6427 7.185 71.4327 6.755C71.226 6.325 71.1227 5.84 71.1227 5.3C71.1227 4.75 71.2277 4.26167 71.4377 3.835C71.651 3.405 71.9493 3.06667 72.3327 2.82C72.716 2.57333 73.166 2.45 73.6827 2.45C74.196 2.45 74.6277 2.575 74.9777 2.825C75.3277 3.075 75.5927 3.415 75.7727 3.845C75.9527 4.275 76.0427 4.76 76.0427 5.3C76.0427 5.84 75.951 6.325 75.7677 6.755C75.5877 7.185 75.3177 7.525 74.9577 7.775C74.5977 8.025 74.1493 8.15 73.6127 8.15ZM73.8327 6.94C74.136 6.94 74.3777 6.87167 74.5577 6.735C74.741 6.59833 74.8727 6.40667 74.9527 6.16C75.0327 5.91333 75.0727 5.62667 75.0727 5.3C75.0727 4.97333 75.0327 4.68667 74.9527 4.44C74.8727 4.19333 74.7443 4.00167 74.5677 3.865C74.3943 3.72833 74.166 3.66 73.8827 3.66C73.5793 3.66 73.3293 3.735 73.1327 3.885C72.9393 4.03167 72.796 4.23 72.7027 4.48C72.6093 4.72667 72.5627 5 72.5627 5.3C72.5627 5.60333 72.6077 5.88 72.6977 6.13C72.7877 6.37667 72.926 6.57333 73.1127 6.72C73.2993 6.86667 73.5393 6.94 73.8327 6.94Z" fill="#949494"/>
<path d="M14.2894 30V12.72H21.5854C21.7534 12.72 21.9774 12.728 22.2574 12.744C22.5454 12.752 22.8014 12.776 23.0254 12.816C24.0574 12.976 24.9014 13.316 25.5574 13.836C26.2214 14.356 26.7094 15.012 27.0214 15.804C27.3334 16.588 27.4894 17.464 27.4894 18.432C27.4894 19.88 27.1294 21.12 26.4094 22.152C25.6894 23.176 24.5614 23.808 23.0254 24.048L21.5854 24.144H17.5534V30H14.2894ZM24.0334 30L20.6254 22.968L23.9854 22.32L27.7294 30H24.0334ZM17.5534 21.096H21.4414C21.6094 21.096 21.7934 21.088 21.9934 21.072C22.1934 21.056 22.3774 21.024 22.5454 20.976C22.9854 20.856 23.3254 20.656 23.5654 20.376C23.8054 20.088 23.9694 19.772 24.0574 19.428C24.1534 19.076 24.2014 18.744 24.2014 18.432C24.2014 18.12 24.1534 17.792 24.0574 17.448C23.9694 17.096 23.8054 16.78 23.5654 16.5C23.3254 16.212 22.9854 16.008 22.5454 15.888C22.3774 15.84 22.1934 15.808 21.9934 15.792C21.7934 15.776 21.6094 15.768 21.4414 15.768H17.5534V21.096ZM36.1995 30.36C34.8955 30.36 33.7515 30.068 32.7675 29.484C31.7835 28.9 31.0155 28.096 30.4635 27.072C29.9195 26.04 29.6475 24.856 29.6475 23.52C29.6475 22.168 29.9275 20.98 30.4875 19.956C31.0475 18.924 31.8195 18.12 32.8035 17.544C33.7875 16.968 34.9195 16.68 36.1995 16.68C37.5035 16.68 38.6475 16.972 39.6315 17.556C40.6235 18.14 41.3955 18.948 41.9475 19.98C42.4995 21.004 42.7755 22.184 42.7755 23.52C42.7755 24.864 42.4955 26.052 41.9355 27.084C41.3835 28.108 40.6115 28.912 39.6195 29.496C38.6355 30.072 37.4955 30.36 36.1995 30.36ZM36.1995 27.312C37.2475 27.312 38.0275 26.96 38.5395 26.256C39.0595 25.544 39.3195 24.632 39.3195 23.52C39.3195 22.368 39.0555 21.448 38.5275 20.76C38.0075 20.072 37.2315 19.728 36.1995 19.728C35.4875 19.728 34.9035 19.888 34.4475 20.208C33.9915 20.528 33.6515 20.972 33.4275 21.54C33.2115 22.108 33.1035 22.768 33.1035 23.52C33.1035 24.68 33.3635 25.604 33.8835 26.292C34.4115 26.972 35.1835 27.312 36.1995 27.312ZM50.2384 30.384C49.2224 30.384 48.3944 30.212 47.7544 29.868C47.1144 29.524 46.6144 29.088 46.2544 28.56C45.9024 28.032 45.6504 27.484 45.4984 26.916C45.3464 26.34 45.2544 25.816 45.2224 25.344C45.1904 24.872 45.1744 24.528 45.1744 24.312V17.04H48.4864V23.16C48.4864 23.456 48.5024 23.836 48.5344 24.3C48.5664 24.756 48.6664 25.216 48.8344 25.68C49.0024 26.144 49.2744 26.532 49.6504 26.844C50.0344 27.156 50.5744 27.312 51.2704 27.312C51.5504 27.312 51.8504 27.268 52.1704 27.18C52.4904 27.092 52.7904 26.924 53.0704 26.676C53.3504 26.42 53.5784 26.048 53.7544 25.56C53.9384 25.064 54.0304 24.416 54.0304 23.616L55.9024 24.504C55.9024 25.528 55.6944 26.488 55.2784 27.384C54.8624 28.28 54.2344 29.004 53.3944 29.556C52.5624 30.108 51.5104 30.384 50.2384 30.384ZM54.4384 30V25.704H54.0304V17.04H57.3184V30H54.4384ZM68.4482 30C67.5522 30.168 66.6722 30.24 65.8082 30.216C64.9522 30.2 64.1842 30.052 63.5042 29.772C62.8322 29.484 62.3202 29.024 61.9682 28.392C61.6482 27.8 61.4802 27.2 61.4642 26.592C61.4482 25.976 61.4402 25.28 61.4402 24.504V13.44H64.7042V24.312C64.7042 24.816 64.7082 25.272 64.7162 25.68C64.7322 26.08 64.8162 26.4 64.9682 26.64C65.2562 27.096 65.7162 27.344 66.3482 27.384C66.9802 27.424 67.6802 27.392 68.4482 27.288V30ZM59.2322 19.56V17.04H68.4482V19.56H59.2322ZM76.6571 30.36C75.3291 30.36 74.1571 30.076 73.1411 29.508C72.1331 28.932 71.3411 28.144 70.7651 27.144C70.1971 26.136 69.9131 24.984 69.9131 23.688C69.9131 22.272 70.1931 21.04 70.7531 19.992C71.3131 18.944 72.0851 18.132 73.0691 17.556C74.0531 16.972 75.1851 16.68 76.4651 16.68C77.8251 16.68 78.9811 17 79.9331 17.64C80.8851 18.28 81.5891 19.18 82.0451 20.34C82.5011 21.5 82.6611 22.864 82.5251 24.432H79.2971V23.232C79.2971 21.912 79.0851 20.964 78.6611 20.388C78.2451 19.804 77.5611 19.512 76.6091 19.512C75.4971 19.512 74.6771 19.852 74.1491 20.532C73.6291 21.204 73.3691 22.2 73.3691 23.52C73.3691 24.728 73.6291 25.664 74.1491 26.328C74.6771 26.984 75.4491 27.312 76.4651 27.312C77.1051 27.312 77.6531 27.172 78.1091 26.892C78.5651 26.612 78.9131 26.208 79.1531 25.68L82.4171 26.616C81.9291 27.8 81.1571 28.72 80.1011 29.376C79.0531 30.032 77.9051 30.36 76.6571 30.36ZM72.3611 24.432V22.008H80.9531V24.432H72.3611ZM93.0394 30V16.272L89.7994 18.264V14.664L93.0394 12.72H96.3754V30H93.0394Z" fill="black"/>
<path d="M40.3994 44.15C39.6794 44.15 39.0577 43.9933 38.5344 43.68C38.0144 43.3667 37.6127 42.9283 37.3294 42.365C37.0494 41.8017 36.9094 41.1467 36.9094 40.4C36.9094 39.6533 37.0494 38.9983 37.3294 38.435C37.6127 37.8717 38.0144 37.4333 38.5344 37.12C39.0577 36.8067 39.6794 36.65 40.3994 36.65C41.226 36.65 41.9194 36.855 42.4794 37.265C43.0427 37.675 43.4394 38.23 43.6694 38.93L42.2994 39.31C42.166 38.8733 41.941 38.535 41.6244 38.295C41.3077 38.0517 40.8994 37.93 40.3994 37.93C39.9427 37.93 39.561 38.0317 39.2544 38.235C38.951 38.4383 38.7227 38.725 38.5694 39.095C38.416 39.465 38.3394 39.9 38.3394 40.4C38.3394 40.9 38.416 41.335 38.5694 41.705C38.7227 42.075 38.951 42.3617 39.2544 42.565C39.561 42.7683 39.9427 42.87 40.3994 42.87C40.8994 42.87 41.3077 42.7483 41.6244 42.505C41.941 42.2617 42.166 41.9233 42.2994 41.49L43.6694 41.87C43.4394 42.57 43.0427 43.125 42.4794 43.535C41.9194 43.945 41.226 44.15 40.3994 44.15ZM48.4503 44V41.45C48.4503 41.3267 48.4436 41.17 48.4303 40.98C48.417 40.7867 48.3753 40.5933 48.3053 40.4C48.2353 40.2067 48.1203 40.045 47.9603 39.915C47.8036 39.785 47.5803 39.72 47.2903 39.72C47.1736 39.72 47.0486 39.7383 46.9153 39.775C46.782 39.8117 46.657 39.8833 46.5403 39.99C46.4236 40.0933 46.327 40.2467 46.2503 40.45C46.177 40.6533 46.1403 40.9233 46.1403 41.26L45.3603 40.89C45.3603 40.4633 45.447 40.0633 45.6203 39.69C45.7936 39.3167 46.0536 39.015 46.4003 38.785C46.7503 38.555 47.1903 38.44 47.7203 38.44C48.1436 38.44 48.4886 38.5117 48.7553 38.655C49.022 38.7983 49.2286 38.98 49.3753 39.2C49.5253 39.42 49.632 39.65 49.6953 39.89C49.7586 40.1267 49.797 40.3433 49.8103 40.54C49.8236 40.7367 49.8303 40.88 49.8303 40.97V44H48.4503ZM44.7603 44V36.8H45.9703V40.5H46.1403V44H44.7603ZM52.6277 44.15C52.2411 44.15 51.9127 44.0767 51.6427 43.93C51.3761 43.78 51.1727 43.5817 51.0327 43.335C50.8961 43.085 50.8277 42.81 50.8277 42.51C50.8277 42.26 50.8661 42.0317 50.9427 41.825C51.0194 41.6183 51.1427 41.4367 51.3127 41.28C51.4861 41.12 51.7177 40.9867 52.0077 40.88C52.2077 40.8067 52.4461 40.7417 52.7227 40.685C52.9994 40.6283 53.3127 40.575 53.6627 40.525C54.0127 40.4717 54.3977 40.4133 54.8177 40.35L54.3277 40.62C54.3277 40.3 54.2511 40.065 54.0977 39.915C53.9444 39.765 53.6877 39.69 53.3277 39.69C53.1277 39.69 52.9194 39.7383 52.7027 39.835C52.4861 39.9317 52.3344 40.1033 52.2477 40.35L51.0177 39.96C51.1544 39.5133 51.4111 39.15 51.7877 38.87C52.1644 38.59 52.6777 38.45 53.3277 38.45C53.8044 38.45 54.2277 38.5233 54.5977 38.67C54.9677 38.8167 55.2477 39.07 55.4377 39.43C55.5444 39.63 55.6077 39.83 55.6277 40.03C55.6477 40.23 55.6577 40.4533 55.6577 40.7V44H54.4677V42.89L54.6377 43.12C54.3744 43.4833 54.0894 43.7467 53.7827 43.91C53.4794 44.07 53.0944 44.15 52.6277 44.15ZM52.9177 43.08C53.1677 43.08 53.3777 43.0367 53.5477 42.95C53.7211 42.86 53.8577 42.7583 53.9577 42.645C54.0611 42.5317 54.1311 42.4367 54.1677 42.36C54.2377 42.2133 54.2777 42.0433 54.2877 41.85C54.3011 41.6533 54.3077 41.49 54.3077 41.36L54.7077 41.46C54.3044 41.5267 53.9777 41.5833 53.7277 41.63C53.4777 41.6733 53.2761 41.7133 53.1227 41.75C52.9694 41.7867 52.8344 41.8267 52.7177 41.87C52.5844 41.9233 52.4761 41.9817 52.3927 42.045C52.3127 42.105 52.2527 42.1717 52.2127 42.245C52.1761 42.3183 52.1577 42.4 52.1577 42.49C52.1577 42.6133 52.1877 42.72 52.2477 42.81C52.3111 42.8967 52.3994 42.9633 52.5127 43.01C52.6261 43.0567 52.7611 43.08 52.9177 43.08ZM60.6378 44V41.45C60.6378 41.3267 60.6311 41.17 60.6178 40.98C60.6045 40.7867 60.5628 40.5933 60.4928 40.4C60.4228 40.2067 60.3078 40.045 60.1478 39.915C59.9911 39.785 59.7678 39.72 59.4778 39.72C59.3611 39.72 59.2361 39.7383 59.1028 39.775C58.9695 39.8117 58.8445 39.8833 58.7278 39.99C58.6111 40.0933 58.5145 40.2467 58.4378 40.45C58.3645 40.6533 58.3278 40.9233 58.3278 41.26L57.5478 40.89C57.5478 40.4633 57.6345 40.0633 57.8078 39.69C57.9811 39.3167 58.2411 39.015 58.5878 38.785C58.9378 38.555 59.3778 38.44 59.9078 38.44C60.3311 38.44 60.6761 38.5117 60.9428 38.655C61.2095 38.7983 61.4161 38.98 61.5628 39.2C61.7128 39.42 61.8195 39.65 61.8828 39.89C61.9461 40.1267 61.9845 40.3433 61.9978 40.54C62.0111 40.7367 62.0178 40.88 62.0178 40.97V44H60.6378ZM56.9478 44V38.6H58.1578V40.39H58.3278V44H56.9478ZM65.6252 46.55C65.3186 46.55 65.0269 46.5 64.7502 46.4C64.4736 46.3033 64.2252 46.1667 64.0052 45.99C63.7886 45.8167 63.6119 45.6133 63.4752 45.38L64.7352 44.77C64.8219 44.93 64.9452 45.0517 65.1052 45.135C65.2686 45.2183 65.4452 45.26 65.6352 45.26C65.8386 45.26 66.0302 45.225 66.2102 45.155C66.3902 45.0883 66.5336 44.9867 66.6402 44.85C66.7502 44.7167 66.8019 44.55 66.7952 44.35V42.78H66.9652V38.6H68.1552V44.37C68.1552 44.5033 68.1486 44.6283 68.1352 44.745C68.1252 44.865 68.1052 44.9833 68.0752 45.1C67.9886 45.43 67.8269 45.7017 67.5902 45.915C67.3569 46.1283 67.0702 46.2867 66.7302 46.39C66.3902 46.4967 66.0219 46.55 65.6252 46.55ZM65.5052 44.15C65.0086 44.15 64.5736 44.025 64.2002 43.775C63.8269 43.525 63.5352 43.185 63.3252 42.755C63.1186 42.325 63.0152 41.84 63.0152 41.3C63.0152 40.75 63.1202 40.2617 63.3302 39.835C63.5436 39.405 63.8419 39.0667 64.2252 38.82C64.6086 38.5733 65.0586 38.45 65.5752 38.45C66.0886 38.45 66.5202 38.575 66.8702 38.825C67.2202 39.075 67.4852 39.415 67.6652 39.845C67.8452 40.275 67.9352 40.76 67.9352 41.3C67.9352 41.84 67.8436 42.325 67.6602 42.755C67.4802 43.185 67.2102 43.525 66.8502 43.775C66.4902 44.025 66.0419 44.15 65.5052 44.15ZM65.7252 42.94C66.0286 42.94 66.2702 42.8717 66.4502 42.735C66.6336 42.5983 66.7652 42.4067 66.8452 42.16C66.9252 41.9133 66.9652 41.6267 66.9652 41.3C66.9652 40.9733 66.9252 40.6867 66.8452 40.44C66.7652 40.1933 66.6369 40.0017 66.4602 39.865C66.2869 39.7283 66.0586 39.66 65.7752 39.66C65.4719 39.66 65.2219 39.735 65.0252 39.885C64.8319 40.0317 64.6886 40.23 64.5952 40.48C64.5019 40.7267 64.4552 41 64.4552 41.3C64.4552 41.6033 64.5002 41.88 64.5902 42.13C64.6802 42.3767 64.8186 42.5733 65.0052 42.72C65.1919 42.8667 65.4319 42.94 65.7252 42.94ZM72.0655 44.15C71.5121 44.15 71.0238 44.0317 70.6005 43.795C70.1805 43.555 69.8505 43.2267 69.6105 42.81C69.3738 42.39 69.2555 41.91 69.2555 41.37C69.2555 40.78 69.3721 40.2667 69.6055 39.83C69.8388 39.3933 70.1605 39.055 70.5705 38.815C70.9805 38.5717 71.4521 38.45 71.9855 38.45C72.5521 38.45 73.0338 38.5833 73.4305 38.85C73.8271 39.1167 74.1205 39.4917 74.3105 39.975C74.5005 40.4583 74.5671 41.0267 74.5105 41.68H73.1655V41.18C73.1655 40.63 73.0771 40.235 72.9005 39.995C72.7271 39.7517 72.4421 39.63 72.0455 39.63C71.5821 39.63 71.2405 39.7717 71.0205 40.055C70.8038 40.335 70.6955 40.75 70.6955 41.3C70.6955 41.8033 70.8038 42.1933 71.0205 42.47C71.2405 42.7433 71.5621 42.88 71.9855 42.88C72.2521 42.88 72.4805 42.8217 72.6705 42.705C72.8605 42.5883 73.0055 42.42 73.1055 42.2L74.4655 42.59C74.2621 43.0833 73.9405 43.4667 73.5005 43.74C73.0638 44.0133 72.5855 44.15 72.0655 44.15ZM70.2755 41.68V40.67H73.8555V41.68H70.2755Z" fill="#DDB948"/>
<path d="M36.6094 44.625H74.9355V44.875H36.6094V44.625Z" fill="#DDB948"/>
</svg>
