<svg width="112" height="47" viewBox="0 0 112 47" fill="none" xmlns="http://www.w3.org/2000/svg">
<path d="M36.9794 7.5V1.57H34.7094V0.3H40.6094V1.57H38.3394V7.5H36.9794ZM40.9148 7.5V2.1H42.1148V3.42L41.9848 3.25C42.0548 3.06333 42.1482 2.89333 42.2648 2.74C42.3815 2.58667 42.5248 2.46 42.6948 2.36C42.8248 2.28 42.9665 2.21833 43.1198 2.175C43.2732 2.12833 43.4315 2.1 43.5948 2.09C43.7582 2.07667 43.9215 2.08 44.0848 2.1V3.37C43.9348 3.32333 43.7598 3.30833 43.5598 3.325C43.3632 3.33833 43.1848 3.38333 43.0248 3.46C42.8648 3.53333 42.7298 3.63167 42.6198 3.755C42.5098 3.875 42.4265 4.01833 42.3698 4.185C42.3132 4.34833 42.2848 4.53333 42.2848 4.74V7.5H40.9148ZM46.4285 7.65C46.0418 7.65 45.7135 7.57667 45.4435 7.43C45.1768 7.28 44.9735 7.08167 44.8335 6.835C44.6968 6.585 44.6285 6.31 44.6285 6.01C44.6285 5.76 44.6668 5.53167 44.7435 5.325C44.8202 5.11833 44.9435 4.93667 45.1135 4.78C45.2868 4.62 45.5185 4.48667 45.8085 4.38C46.0085 4.30667 46.2468 4.24167 46.5235 4.185C46.8002 4.12833 47.1135 4.075 47.4635 4.025C47.8135 3.97167 48.1985 3.91333 48.6185 3.85L48.1285 4.12C48.1285 3.8 48.0518 3.565 47.8985 3.415C47.7452 3.265 47.4885 3.19 47.1285 3.19C46.9285 3.19 46.7202 3.23833 46.5035 3.335C46.2868 3.43167 46.1352 3.60333 46.0485 3.85L44.8185 3.46C44.9552 3.01333 45.2118 2.65 45.5885 2.37C45.9652 2.09 46.4785 1.95 47.1285 1.95C47.6052 1.95 48.0285 2.02333 48.3985 2.17C48.7685 2.31667 49.0485 2.57 49.2385 2.93C49.3452 3.13 49.4085 3.33 49.4285 3.53C49.4485 3.73 49.4585 3.95333 49.4585 4.2V7.5H48.2685V6.39L48.4385 6.62C48.1752 6.98333 47.8902 7.24667 47.5835 7.41C47.2802 7.57 46.8952 7.65 46.4285 7.65ZM46.7185 6.58C46.9685 6.58 47.1785 6.53667 47.3485 6.45C47.5218 6.36 47.6585 6.25833 47.7585 6.145C47.8618 6.03167 47.9318 5.93667 47.9685 5.86C48.0385 5.71333 48.0785 5.54333 48.0885 5.35C48.1018 5.15333 48.1085 4.99 48.1085 4.86L48.5085 4.96C48.1052 5.02667 47.7785 5.08333 47.5285 5.13C47.2785 5.17333 47.0768 5.21333 46.9235 5.25C46.7702 5.28667 46.6352 5.32667 46.5185 5.37C46.3852 5.42333 46.2768 5.48167 46.1935 5.545C46.1135 5.605 46.0535 5.67167 46.0135 5.745C45.9768 5.81833 45.9585 5.9 45.9585 5.99C45.9585 6.11333 45.9885 6.22 46.0485 6.31C46.1118 6.39667 46.2002 6.46333 46.3135 6.51C46.4268 6.55667 46.5618 6.58 46.7185 6.58ZM53.1386 7.65C52.5786 7.65 52.0986 7.525 51.6986 7.275C51.2986 7.025 50.9919 6.685 50.7786 6.255C50.5653 5.825 50.4586 5.34 50.4586 4.8C50.4586 4.25333 50.5686 3.765 50.7886 3.335C51.0119 2.905 51.3253 2.56667 51.7286 2.32C52.1319 2.07333 52.6086 1.95 53.1586 1.95C53.7953 1.95 54.3286 2.11167 54.7586 2.435C55.1919 2.755 55.4686 3.19333 55.5886 3.75L54.2286 4.11C54.1486 3.83 54.0086 3.61167 53.8086 3.455C53.6119 3.29833 53.3886 3.22 53.1386 3.22C52.8519 3.22 52.6169 3.29 52.4336 3.43C52.2503 3.56667 52.1153 3.755 52.0286 3.995C51.9419 4.23167 51.8986 4.5 51.8986 4.8C51.8986 5.27 52.0019 5.65167 52.2086 5.945C52.4186 6.235 52.7286 6.38 53.1386 6.38C53.4453 6.38 53.6786 6.31 53.8386 6.17C53.9986 6.03 54.1186 5.83 54.1986 5.57L55.5886 5.86C55.4353 6.43333 55.1453 6.875 54.7186 7.185C54.2919 7.495 53.7653 7.65 53.1386 7.65ZM56.5787 7.5L56.5887 0.3H57.9687V4.7L59.7987 2.1H61.4787L59.5287 4.8L61.6087 7.5H59.8387L57.9687 4.9V7.5H56.5787ZM62.2063 1.35V0.15H63.5663V1.35H62.2063ZM62.2063 7.5V2.1H63.5663V7.5H62.2063ZM68.7452 7.5V4.95C68.7452 4.82667 68.7386 4.67 68.7252 4.48C68.7119 4.28667 68.6702 4.09333 68.6002 3.9C68.5302 3.70667 68.4152 3.545 68.2552 3.415C68.0986 3.285 67.8752 3.22 67.5852 3.22C67.4686 3.22 67.3436 3.23833 67.2102 3.275C67.0769 3.31167 66.9519 3.38333 66.8352 3.49C66.7186 3.59333 66.6219 3.74667 66.5452 3.95C66.4719 4.15333 66.4352 4.42333 66.4352 4.76L65.6552 4.39C65.6552 3.96333 65.7419 3.56333 65.9152 3.19C66.0886 2.81667 66.3486 2.515 66.6952 2.285C67.0452 2.055 67.4852 1.94 68.0152 1.94C68.4386 1.94 68.7836 2.01167 69.0502 2.155C69.3169 2.29833 69.5236 2.48 69.6702 2.7C69.8202 2.92 69.9269 3.15 69.9902 3.39C70.0536 3.62667 70.0919 3.84333 70.1052 4.04C70.1186 4.23667 70.1252 4.38 70.1252 4.47V7.5H68.7452ZM65.0552 7.5V2.1H66.2652V3.89H66.4352V7.5H65.0552ZM73.7327 10.05C73.426 10.05 73.1343 10 72.8577 9.9C72.581 9.80333 72.3327 9.66667 72.1127 9.49C71.896 9.31667 71.7193 9.11333 71.5827 8.88L72.8427 8.27C72.9293 8.43 73.0527 8.55167 73.2127 8.635C73.376 8.71833 73.5527 8.76 73.7427 8.76C73.946 8.76 74.1377 8.725 74.3177 8.655C74.4977 8.58833 74.641 8.48667 74.7477 8.35C74.8577 8.21667 74.9093 8.05 74.9027 7.85V6.28H75.0727V2.1H76.2627V7.87C76.2627 8.00333 76.256 8.12833 76.2427 8.245C76.2327 8.365 76.2127 8.48333 76.1827 8.6C76.096 8.93 75.9343 9.20167 75.6977 9.415C75.4643 9.62833 75.1777 9.78667 74.8377 9.89C74.4977 9.99667 74.1293 10.05 73.7327 10.05ZM73.6127 7.65C73.116 7.65 72.681 7.525 72.3077 7.275C71.9343 7.025 71.6427 6.685 71.4327 6.255C71.226 5.825 71.1227 5.34 71.1227 4.8C71.1227 4.25 71.2277 3.76167 71.4377 3.335C71.651 2.905 71.9493 2.56667 72.3327 2.32C72.716 2.07333 73.166 1.95 73.6827 1.95C74.196 1.95 74.6277 2.075 74.9777 2.325C75.3277 2.575 75.5927 2.915 75.7727 3.345C75.9527 3.775 76.0427 4.26 76.0427 4.8C76.0427 5.34 75.951 5.825 75.7677 6.255C75.5877 6.685 75.3177 7.025 74.9577 7.275C74.5977 7.525 74.1493 7.65 73.6127 7.65ZM73.8327 6.44C74.136 6.44 74.3777 6.37167 74.5577 6.235C74.741 6.09833 74.8727 5.90667 74.9527 5.66C75.0327 5.41333 75.0727 5.12667 75.0727 4.8C75.0727 4.47333 75.0327 4.18667 74.9527 3.94C74.8727 3.69333 74.7443 3.50167 74.5677 3.365C74.3943 3.22833 74.166 3.16 73.8827 3.16C73.5793 3.16 73.3293 3.235 73.1327 3.385C72.9393 3.53167 72.796 3.73 72.7027 3.98C72.6093 4.22667 72.5627 4.5 72.5627 4.8C72.5627 5.10333 72.6077 5.38 72.6977 5.63C72.7877 5.87667 72.926 6.07333 73.1127 6.22C73.2993 6.36667 73.5393 6.44 73.8327 6.44Z" fill="#949494"/>
<path d="M6.78938 29.5V12.22H14.0854C14.2534 12.22 14.4774 12.228 14.7574 12.244C15.0454 12.252 15.3014 12.276 15.5254 12.316C16.5574 12.476 17.4014 12.816 18.0574 13.336C18.7214 13.856 19.2094 14.512 19.5214 15.304C19.8334 16.088 19.9894 16.964 19.9894 17.932C19.9894 19.38 19.6294 20.62 18.9094 21.652C18.1894 22.676 17.0614 23.308 15.5254 23.548L14.0854 23.644H10.0534V29.5H6.78938ZM16.5334 29.5L13.1254 22.468L16.4854 21.82L20.2294 29.5H16.5334ZM10.0534 20.596H13.9414C14.1094 20.596 14.2934 20.588 14.4934 20.572C14.6934 20.556 14.8774 20.524 15.0454 20.476C15.4854 20.356 15.8254 20.156 16.0654 19.876C16.3054 19.588 16.4694 19.272 16.5574 18.928C16.6534 18.576 16.7014 18.244 16.7014 17.932C16.7014 17.62 16.6534 17.292 16.5574 16.948C16.4694 16.596 16.3054 16.28 16.0654 16C15.8254 15.712 15.4854 15.508 15.0454 15.388C14.8774 15.34 14.6934 15.308 14.4934 15.292C14.2934 15.276 14.1094 15.268 13.9414 15.268H10.0534V20.596ZM28.6995 29.86C27.3955 29.86 26.2515 29.568 25.2675 28.984C24.2835 28.4 23.5155 27.596 22.9635 26.572C22.4195 25.54 22.1475 24.356 22.1475 23.02C22.1475 21.668 22.4275 20.48 22.9875 19.456C23.5475 18.424 24.3195 17.62 25.3035 17.044C26.2875 16.468 27.4195 16.18 28.6995 16.18C30.0035 16.18 31.1475 16.472 32.1315 17.056C33.1235 17.64 33.8955 18.448 34.4475 19.48C34.9995 20.504 35.2755 21.684 35.2755 23.02C35.2755 24.364 34.9955 25.552 34.4355 26.584C33.8835 27.608 33.1115 28.412 32.1195 28.996C31.1355 29.572 29.9955 29.86 28.6995 29.86ZM28.6995 26.812C29.7475 26.812 30.5275 26.46 31.0395 25.756C31.5595 25.044 31.8195 24.132 31.8195 23.02C31.8195 21.868 31.5555 20.948 31.0275 20.26C30.5075 19.572 29.7315 19.228 28.6995 19.228C27.9875 19.228 27.4035 19.388 26.9475 19.708C26.4915 20.028 26.1515 20.472 25.9275 21.04C25.7115 21.608 25.6035 22.268 25.6035 23.02C25.6035 24.18 25.8635 25.104 26.3835 25.792C26.9115 26.472 27.6835 26.812 28.6995 26.812ZM42.7384 29.884C41.7224 29.884 40.8944 29.712 40.2544 29.368C39.6144 29.024 39.1144 28.588 38.7544 28.06C38.4024 27.532 38.1504 26.984 37.9984 26.416C37.8464 25.84 37.7544 25.316 37.7224 24.844C37.6904 24.372 37.6744 24.028 37.6744 23.812V16.54H40.9864V22.66C40.9864 22.956 41.0024 23.336 41.0344 23.8C41.0664 24.256 41.1664 24.716 41.3344 25.18C41.5024 25.644 41.7744 26.032 42.1504 26.344C42.5344 26.656 43.0744 26.812 43.7704 26.812C44.0504 26.812 44.3504 26.768 44.6704 26.68C44.9904 26.592 45.2904 26.424 45.5704 26.176C45.8504 25.92 46.0784 25.548 46.2544 25.06C46.4384 24.564 46.5304 23.916 46.5304 23.116L48.4024 24.004C48.4024 25.028 48.1944 25.988 47.7784 26.884C47.3624 27.78 46.7344 28.504 45.8944 29.056C45.0624 29.608 44.0104 29.884 42.7384 29.884ZM46.9384 29.5V25.204H46.5304V16.54H49.8184V29.5H46.9384ZM60.9482 29.5C60.0522 29.668 59.1722 29.74 58.3082 29.716C57.4522 29.7 56.6842 29.552 56.0042 29.272C55.3322 28.984 54.8202 28.524 54.4682 27.892C54.1482 27.3 53.9802 26.7 53.9642 26.092C53.9482 25.476 53.9402 24.78 53.9402 24.004V12.94H57.2042V23.812C57.2042 24.316 57.2082 24.772 57.2162 25.18C57.2322 25.58 57.3162 25.9 57.4682 26.14C57.7562 26.596 58.2162 26.844 58.8482 26.884C59.4802 26.924 60.1802 26.892 60.9482 26.788V29.5ZM51.7322 19.06V16.54H60.9482V19.06H51.7322ZM69.1571 29.86C67.8291 29.86 66.6571 29.576 65.6411 29.008C64.6331 28.432 63.8411 27.644 63.2651 26.644C62.6971 25.636 62.4131 24.484 62.4131 23.188C62.4131 21.772 62.6931 20.54 63.2531 19.492C63.8131 18.444 64.5851 17.632 65.5691 17.056C66.5531 16.472 67.6851 16.18 68.9651 16.18C70.3251 16.18 71.4811 16.5 72.4331 17.14C73.3851 17.78 74.0891 18.68 74.5451 19.84C75.0011 21 75.1611 22.364 75.0251 23.932H71.7971V22.732C71.7971 21.412 71.5851 20.464 71.1611 19.888C70.7451 19.304 70.0611 19.012 69.1091 19.012C67.9971 19.012 67.1771 19.352 66.6491 20.032C66.1291 20.704 65.8691 21.7 65.8691 23.02C65.8691 24.228 66.1291 25.164 66.6491 25.828C67.1771 26.484 67.9491 26.812 68.9651 26.812C69.6051 26.812 70.1531 26.672 70.6091 26.392C71.0651 26.112 71.4131 25.708 71.6531 25.18L74.9171 26.116C74.4291 27.3 73.6571 28.22 72.6011 28.876C71.5531 29.532 70.4051 29.86 69.1571 29.86ZM64.8611 23.932V21.508H73.4531V23.932H64.8611ZM85.5394 29.5V15.772L82.2994 17.764V14.164L85.5394 12.22H88.8754V29.5H85.5394ZM99.4618 29.86C98.3178 29.86 97.2898 29.592 96.3778 29.056C95.4738 28.52 94.7578 27.776 94.2298 26.824C93.7018 25.864 93.4378 24.756 93.4378 23.5V18.484C93.4378 17.124 93.7018 15.952 94.2298 14.968C94.7578 13.976 95.5018 13.216 96.4618 12.688C97.4218 12.152 98.5498 11.884 99.8458 11.884C100.686 11.884 101.486 12.008 102.246 12.256C103.006 12.504 103.702 12.924 104.334 13.516L102.006 15.844C101.718 15.556 101.386 15.332 101.01 15.172C100.634 15.012 100.246 14.932 99.8458 14.932C99.2218 14.932 98.6778 15.08 98.2138 15.376C97.7578 15.664 97.4018 16.044 97.1458 16.516C96.8978 16.98 96.7738 17.476 96.7738 18.004V20.572L96.2218 19.972C96.7178 19.468 97.2898 19.084 97.9378 18.82C98.5938 18.548 99.2698 18.412 99.9658 18.412C101.054 18.412 102.01 18.656 102.834 19.144C103.666 19.632 104.314 20.3 104.778 21.148C105.25 21.996 105.486 22.964 105.486 24.052C105.486 25.14 105.21 26.124 104.658 27.004C104.106 27.876 103.374 28.572 102.462 29.092C101.55 29.604 100.55 29.86 99.4618 29.86ZM99.4618 26.74C99.9578 26.74 100.41 26.62 100.818 26.38C101.234 26.14 101.562 25.816 101.802 25.408C102.05 25 102.174 24.548 102.174 24.052C102.174 23.556 102.054 23.104 101.814 22.696C101.574 22.28 101.25 21.952 100.842 21.712C100.434 21.464 99.9818 21.34 99.4858 21.34C98.9898 21.34 98.5338 21.464 98.1178 21.712C97.7098 21.952 97.3818 22.28 97.1338 22.696C96.8938 23.104 96.7738 23.556 96.7738 24.052C96.7738 24.532 96.8938 24.976 97.1338 25.384C97.3738 25.792 97.6978 26.12 98.1058 26.368C98.5138 26.616 98.9658 26.74 99.4618 26.74Z" fill="black"/>
<path d="M40.3994 43.65C39.6794 43.65 39.0577 43.4933 38.5344 43.18C38.0144 42.8667 37.6127 42.4283 37.3294 41.865C37.0494 41.3017 36.9094 40.6467 36.9094 39.9C36.9094 39.1533 37.0494 38.4983 37.3294 37.935C37.6127 37.3717 38.0144 36.9333 38.5344 36.62C39.0577 36.3067 39.6794 36.15 40.3994 36.15C41.226 36.15 41.9194 36.355 42.4794 36.765C43.0427 37.175 43.4394 37.73 43.6694 38.43L42.2994 38.81C42.166 38.3733 41.941 38.035 41.6244 37.795C41.3077 37.5517 40.8994 37.43 40.3994 37.43C39.9427 37.43 39.561 37.5317 39.2544 37.735C38.951 37.9383 38.7227 38.225 38.5694 38.595C38.416 38.965 38.3394 39.4 38.3394 39.9C38.3394 40.4 38.416 40.835 38.5694 41.205C38.7227 41.575 38.951 41.8617 39.2544 42.065C39.561 42.2683 39.9427 42.37 40.3994 42.37C40.8994 42.37 41.3077 42.2483 41.6244 42.005C41.941 41.7617 42.166 41.4233 42.2994 40.99L43.6694 41.37C43.4394 42.07 43.0427 42.625 42.4794 43.035C41.9194 43.445 41.226 43.65 40.3994 43.65ZM48.4503 43.5V40.95C48.4503 40.8267 48.4436 40.67 48.4303 40.48C48.417 40.2867 48.3753 40.0933 48.3053 39.9C48.2353 39.7067 48.1203 39.545 47.9603 39.415C47.8036 39.285 47.5803 39.22 47.2903 39.22C47.1736 39.22 47.0486 39.2383 46.9153 39.275C46.782 39.3117 46.657 39.3833 46.5403 39.49C46.4236 39.5933 46.327 39.7467 46.2503 39.95C46.177 40.1533 46.1403 40.4233 46.1403 40.76L45.3603 40.39C45.3603 39.9633 45.447 39.5633 45.6203 39.19C45.7936 38.8167 46.0536 38.515 46.4003 38.285C46.7503 38.055 47.1903 37.94 47.7203 37.94C48.1436 37.94 48.4886 38.0117 48.7553 38.155C49.022 38.2983 49.2286 38.48 49.3753 38.7C49.5253 38.92 49.632 39.15 49.6953 39.39C49.7586 39.6267 49.797 39.8433 49.8103 40.04C49.8236 40.2367 49.8303 40.38 49.8303 40.47V43.5H48.4503ZM44.7603 43.5V36.3H45.9703V40H46.1403V43.5H44.7603ZM52.6277 43.65C52.2411 43.65 51.9127 43.5767 51.6427 43.43C51.3761 43.28 51.1727 43.0817 51.0327 42.835C50.8961 42.585 50.8277 42.31 50.8277 42.01C50.8277 41.76 50.8661 41.5317 50.9427 41.325C51.0194 41.1183 51.1427 40.9367 51.3127 40.78C51.4861 40.62 51.7177 40.4867 52.0077 40.38C52.2077 40.3067 52.4461 40.2417 52.7227 40.185C52.9994 40.1283 53.3127 40.075 53.6627 40.025C54.0127 39.9717 54.3977 39.9133 54.8177 39.85L54.3277 40.12C54.3277 39.8 54.2511 39.565 54.0977 39.415C53.9444 39.265 53.6877 39.19 53.3277 39.19C53.1277 39.19 52.9194 39.2383 52.7027 39.335C52.4861 39.4317 52.3344 39.6033 52.2477 39.85L51.0177 39.46C51.1544 39.0133 51.4111 38.65 51.7877 38.37C52.1644 38.09 52.6777 37.95 53.3277 37.95C53.8044 37.95 54.2277 38.0233 54.5977 38.17C54.9677 38.3167 55.2477 38.57 55.4377 38.93C55.5444 39.13 55.6077 39.33 55.6277 39.53C55.6477 39.73 55.6577 39.9533 55.6577 40.2V43.5H54.4677V42.39L54.6377 42.62C54.3744 42.9833 54.0894 43.2467 53.7827 43.41C53.4794 43.57 53.0944 43.65 52.6277 43.65ZM52.9177 42.58C53.1677 42.58 53.3777 42.5367 53.5477 42.45C53.7211 42.36 53.8577 42.2583 53.9577 42.145C54.0611 42.0317 54.1311 41.9367 54.1677 41.86C54.2377 41.7133 54.2777 41.5433 54.2877 41.35C54.3011 41.1533 54.3077 40.99 54.3077 40.86L54.7077 40.96C54.3044 41.0267 53.9777 41.0833 53.7277 41.13C53.4777 41.1733 53.2761 41.2133 53.1227 41.25C52.9694 41.2867 52.8344 41.3267 52.7177 41.37C52.5844 41.4233 52.4761 41.4817 52.3927 41.545C52.3127 41.605 52.2527 41.6717 52.2127 41.745C52.1761 41.8183 52.1577 41.9 52.1577 41.99C52.1577 42.1133 52.1877 42.22 52.2477 42.31C52.3111 42.3967 52.3994 42.4633 52.5127 42.51C52.6261 42.5567 52.7611 42.58 52.9177 42.58ZM60.6378 43.5V40.95C60.6378 40.8267 60.6311 40.67 60.6178 40.48C60.6045 40.2867 60.5628 40.0933 60.4928 39.9C60.4228 39.7067 60.3078 39.545 60.1478 39.415C59.9911 39.285 59.7678 39.22 59.4778 39.22C59.3611 39.22 59.2361 39.2383 59.1028 39.275C58.9695 39.3117 58.8445 39.3833 58.7278 39.49C58.6111 39.5933 58.5145 39.7467 58.4378 39.95C58.3645 40.1533 58.3278 40.4233 58.3278 40.76L57.5478 40.39C57.5478 39.9633 57.6345 39.5633 57.8078 39.19C57.9811 38.8167 58.2411 38.515 58.5878 38.285C58.9378 38.055 59.3778 37.94 59.9078 37.94C60.3311 37.94 60.6761 38.0117 60.9428 38.155C61.2095 38.2983 61.4161 38.48 61.5628 38.7C61.7128 38.92 61.8195 39.15 61.8828 39.39C61.9461 39.6267 61.9845 39.8433 61.9978 40.04C62.0111 40.2367 62.0178 40.38 62.0178 40.47V43.5H60.6378ZM56.9478 43.5V38.1H58.1578V39.89H58.3278V43.5H56.9478ZM65.6252 46.05C65.3186 46.05 65.0269 46 64.7502 45.9C64.4736 45.8033 64.2252 45.6667 64.0052 45.49C63.7886 45.3167 63.6119 45.1133 63.4752 44.88L64.7352 44.27C64.8219 44.43 64.9452 44.5517 65.1052 44.635C65.2686 44.7183 65.4452 44.76 65.6352 44.76C65.8386 44.76 66.0302 44.725 66.2102 44.655C66.3902 44.5883 66.5336 44.4867 66.6402 44.35C66.7502 44.2167 66.8019 44.05 66.7952 43.85V42.28H66.9652V38.1H68.1552V43.87C68.1552 44.0033 68.1486 44.1283 68.1352 44.245C68.1252 44.365 68.1052 44.4833 68.0752 44.6C67.9886 44.93 67.8269 45.2017 67.5902 45.415C67.3569 45.6283 67.0702 45.7867 66.7302 45.89C66.3902 45.9967 66.0219 46.05 65.6252 46.05ZM65.5052 43.65C65.0086 43.65 64.5736 43.525 64.2002 43.275C63.8269 43.025 63.5352 42.685 63.3252 42.255C63.1186 41.825 63.0152 41.34 63.0152 40.8C63.0152 40.25 63.1202 39.7617 63.3302 39.335C63.5436 38.905 63.8419 38.5667 64.2252 38.32C64.6086 38.0733 65.0586 37.95 65.5752 37.95C66.0886 37.95 66.5202 38.075 66.8702 38.325C67.2202 38.575 67.4852 38.915 67.6652 39.345C67.8452 39.775 67.9352 40.26 67.9352 40.8C67.9352 41.34 67.8436 41.825 67.6602 42.255C67.4802 42.685 67.2102 43.025 66.8502 43.275C66.4902 43.525 66.0419 43.65 65.5052 43.65ZM65.7252 42.44C66.0286 42.44 66.2702 42.3717 66.4502 42.235C66.6336 42.0983 66.7652 41.9067 66.8452 41.66C66.9252 41.4133 66.9652 41.1267 66.9652 40.8C66.9652 40.4733 66.9252 40.1867 66.8452 39.94C66.7652 39.6933 66.6369 39.5017 66.4602 39.365C66.2869 39.2283 66.0586 39.16 65.7752 39.16C65.4719 39.16 65.2219 39.235 65.0252 39.385C64.8319 39.5317 64.6886 39.73 64.5952 39.98C64.5019 40.2267 64.4552 40.5 64.4552 40.8C64.4552 41.1033 64.5002 41.38 64.5902 41.63C64.6802 41.8767 64.8186 42.0733 65.0052 42.22C65.1919 42.3667 65.4319 42.44 65.7252 42.44ZM72.0655 43.65C71.5121 43.65 71.0238 43.5317 70.6005 43.295C70.1805 43.055 69.8505 42.7267 69.6105 42.31C69.3738 41.89 69.2555 41.41 69.2555 40.87C69.2555 40.28 69.3721 39.7667 69.6055 39.33C69.8388 38.8933 70.1605 38.555 70.5705 38.315C70.9805 38.0717 71.4521 37.95 71.9855 37.95C72.5521 37.95 73.0338 38.0833 73.4305 38.35C73.8271 38.6167 74.1205 38.9917 74.3105 39.475C74.5005 39.9583 74.5671 40.5267 74.5105 41.18H73.1655V40.68C73.1655 40.13 73.0771 39.735 72.9005 39.495C72.7271 39.2517 72.4421 39.13 72.0455 39.13C71.5821 39.13 71.2405 39.2717 71.0205 39.555C70.8038 39.835 70.6955 40.25 70.6955 40.8C70.6955 41.3033 70.8038 41.6933 71.0205 41.97C71.2405 42.2433 71.5621 42.38 71.9855 42.38C72.2521 42.38 72.4805 42.3217 72.6705 42.205C72.8605 42.0883 73.0055 41.92 73.1055 41.7L74.4655 42.09C74.2621 42.5833 73.9405 42.9667 73.5005 43.24C73.0638 43.5133 72.5855 43.65 72.0655 43.65ZM70.2755 41.18V40.17H73.8555V41.18H70.2755Z" fill="#DDB948"/>
<path d="M36.6094 44.125H74.9355V44.375H36.6094V44.125Z" fill="#DDB948"/>
</svg>
