<svg width="31" height="25" viewBox="0 0 31 25" fill="none" xmlns="http://www.w3.org/2000/svg">
<path fill-rule="evenodd" clip-rule="evenodd" d="M6.60938 10.5H4.60938V0.5H6.60938V10.5ZM4.60938 24.5H6.60938V18.5H4.60938V24.5ZM14.6094 24.5H16.6094V12.5H14.6094V24.5ZM24.6094 24.5H26.6094V20.5H24.6094V24.5ZM26.6094 0.5H24.6094V12.5H26.6094V0.5ZM16.6094 0.5H14.6094V4.5H16.6094V0.5ZM8.60938 12.5H2.60938C1.50937 12.5 0.609375 13.4 0.609375 14.5C0.609375 15.6 1.50937 16.5 2.60938 16.5H8.60938C9.70938 16.5 10.6094 15.6 10.6094 14.5C10.6094 13.4 9.70938 12.5 8.60938 12.5ZM18.6094 6.5H12.6094C11.5094 6.5 10.6094 7.4 10.6094 8.5C10.6094 9.6 11.5094 10.5 12.6094 10.5H18.6094C19.7094 10.5 20.6094 9.6 20.6094 8.5C20.6094 7.4 19.7094 6.5 18.6094 6.5ZM28.6094 14.5H22.6094C21.5094 14.5 20.6094 15.4 20.6094 16.5C20.6094 17.6 21.5094 18.5 22.6094 18.5H28.6094C29.7094 18.5 30.6094 17.6 30.6094 16.5C30.6094 15.4 29.7094 14.5 28.6094 14.5Z" fill="black"/>
</svg>
